<!--
SPDX-FileCopyrightText: © 2024 Christian Buhtz <c.buhtz@posteo.jp>

SPDX-License-Identifier: GPL-2.0-or-later

This file is part of the program "Back In Time" which is released under GNU
General Public License v2 (GPLv2). See LICENSES directory or go to
<https://spdx.org/licenses/GPL-2.0-or-later.html>
-->
<mxfile host="app.diagrams.net" agent="Mozilla/5.0 (Windows NT 10.0; Win64; x64) AppleWebKit/537.36 (KHTML, like Gecko) Chrome/131.0.0.0 Safari/537.36 Edg/131.0.0.0" version="25.0.3">
  <diagram name="Seite-1" id="QbO9OI8nUnqEIkdLsoEd">
    <mxGraphModel dx="2200" dy="1164" grid="1" gridSize="10" guides="1" tooltips="1" connect="1" arrows="1" fold="1" page="1" pageScale="1" pageWidth="827" pageHeight="1169" math="0" shadow="0">
      <root>
        <mxCell id="0" />
        <mxCell id="1" parent="0" />
        <mxCell id="x8gMyu6OwGuHP-ef9QG5-16" value="" style="strokeWidth=1;shadow=1;dashed=0;align=center;html=1;shape=mxgraph.mockup.containers.marginRect2;rectMarginTop=32;strokeColor=#666666;gradientColor=none;whiteSpace=wrap;fontColor=#808080;movable=1;resizable=1;rotatable=1;deletable=1;editable=1;locked=0;connectable=1;fillColor=default;fillStyle=auto;" parent="1" vertex="1">
          <mxGeometry x="10" y="10" width="890" height="1030" as="geometry" />
        </mxCell>
        <mxCell id="x8gMyu6OwGuHP-ef9QG5-22" value="..." style="strokeColor=inherit;fillColor=inherit;gradientColor=inherit;strokeWidth=1;shadow=0;dashed=0;align=center;html=1;shape=mxgraph.mockup.containers.rrect;rSize=0;fontSize=17;fontColor=#666666;gradientColor=none;" parent="x8gMyu6OwGuHP-ef9QG5-16" vertex="1">
          <mxGeometry width="60" height="25" relative="1" as="geometry">
            <mxPoint x="10" as="offset" />
          </mxGeometry>
        </mxCell>
        <mxCell id="x8gMyu6OwGuHP-ef9QG5-23" value="Auto-remove" style="strokeWidth=1;shadow=0;dashed=0;align=center;html=1;shape=mxgraph.mockup.containers.rrect;rSize=0;fontSize=17;fontColor=#ffffff;strokeColor=#008cff;fillColor=#008cff;" parent="x8gMyu6OwGuHP-ef9QG5-16" vertex="1">
          <mxGeometry width="110" height="25" relative="1" as="geometry">
            <mxPoint x="75" as="offset" />
          </mxGeometry>
        </mxCell>
        <mxCell id="x8gMyu6OwGuHP-ef9QG5-24" value="..." style="strokeColor=inherit;fillColor=inherit;gradientColor=inherit;strokeWidth=1;shadow=0;dashed=0;align=center;html=1;shape=mxgraph.mockup.containers.rrect;rSize=0;fontSize=17;fontColor=#666666;gradientColor=none;" parent="x8gMyu6OwGuHP-ef9QG5-16" vertex="1">
          <mxGeometry width="60" height="25" relative="1" as="geometry">
            <mxPoint x="190" as="offset" />
          </mxGeometry>
        </mxCell>
        <mxCell id="x8gMyu6OwGuHP-ef9QG5-25" value="" style="strokeWidth=1;shadow=0;dashed=0;align=center;html=1;shape=mxgraph.mockup.containers.topButton;rSize=5;strokeColor=#008cff;fillColor=#008cff;gradientColor=none;resizeWidth=1;movable=0;deletable=1;" parent="x8gMyu6OwGuHP-ef9QG5-16" vertex="1">
          <mxGeometry width="600" height="7" relative="1" as="geometry">
            <mxPoint y="25" as="offset" />
          </mxGeometry>
        </mxCell>
        <mxCell id="x8gMyu6OwGuHP-ef9QG5-50" value="" style="shape=mxgraph.mockup.containers.marginRect;rectMarginTop=10;strokeColor=#666666;strokeWidth=1;dashed=0;rounded=1;arcSize=5;recursiveResize=0;html=1;whiteSpace=wrap;" parent="x8gMyu6OwGuHP-ef9QG5-16" vertex="1">
          <mxGeometry x="20" y="130.67" width="450" height="89.33" as="geometry" />
        </mxCell>
        <mxCell id="x8gMyu6OwGuHP-ef9QG5-51" value="Remove if …" style="shape=rect;strokeColor=none;fillColor=#008cff;strokeWidth=1;dashed=0;rounded=1;arcSize=20;fontColor=#ffffff;fontSize=17;spacing=2;spacingTop=-2;align=left;autosize=1;spacingLeft=4;resizeWidth=0;resizeHeight=0;perimeter=none;html=1;whiteSpace=wrap;" parent="x8gMyu6OwGuHP-ef9QG5-50" vertex="1">
          <mxGeometry x="5" width="120" height="30" as="geometry" />
        </mxCell>
        <mxCell id="x8gMyu6OwGuHP-ef9QG5-58" value="… backup is older than" style="strokeWidth=1;shadow=0;dashed=0;align=center;html=1;shape=mxgraph.mockup.forms.rrect;rSize=0;fillColor=#eeeeee;strokeColor=#999999;gradientColor=#cccccc;align=left;spacingLeft=4;fontSize=17;fontColor=#666666;labelPosition=right;" parent="x8gMyu6OwGuHP-ef9QG5-50" vertex="1">
          <mxGeometry x="13.5" y="47.01910447761196" width="15" height="23.059701492537314" as="geometry" />
        </mxCell>
        <mxCell id="x8gMyu6OwGuHP-ef9QG5-59" value="15" style="strokeWidth=1;shadow=0;dashed=0;align=center;html=1;shape=mxgraph.mockup.forms.spinner;strokeColor=#999999;spinLayout=right;spinStyle=normal;adjStyle=triangle;fillColor=#aaddff;fontSize=17;fontColor=#666666;mainText=;html=1;overflow=fill;" parent="x8gMyu6OwGuHP-ef9QG5-50" vertex="1">
          <mxGeometry x="248.5" y="39.33253731343285" width="70" height="30.746268656716417" as="geometry" />
        </mxCell>
        <mxCell id="x8gMyu6OwGuHP-ef9QG5-60" value="Year(s)" style="strokeWidth=1;shadow=0;dashed=0;align=center;html=1;shape=mxgraph.mockup.forms.comboBox;strokeColor=#999999;fillColor=#ddeeff;align=left;fillColor2=#aaddff;mainText=;fontColor=#666666;fontSize=17;spacingLeft=3;" parent="x8gMyu6OwGuHP-ef9QG5-50" vertex="1">
          <mxGeometry x="336.5" y="39.33253731343285" width="100" height="30.746268656716417" as="geometry" />
        </mxCell>
        <mxCell id="x8gMyu6OwGuHP-ef9QG5-12" value="" style="shape=mxgraph.mockup.containers.marginRect;rectMarginTop=10;strokeColor=#666666;strokeWidth=1;dashed=0;rounded=1;arcSize=5;recursiveResize=0;html=1;whiteSpace=wrap;" parent="x8gMyu6OwGuHP-ef9QG5-16" vertex="1">
          <mxGeometry x="20" y="240" width="520" height="299.57" as="geometry" />
        </mxCell>
        <mxCell id="x8gMyu6OwGuHP-ef9QG5-13" value="Keep …" style="shape=rect;strokeColor=none;fillColor=#008cff;strokeWidth=1;dashed=0;rounded=1;arcSize=20;fontColor=#ffffff;fontSize=17;spacing=2;spacingTop=-2;align=left;autosize=1;spacingLeft=4;resizeWidth=0;resizeHeight=0;perimeter=none;html=1;whiteSpace=wrap;" parent="x8gMyu6OwGuHP-ef9QG5-12" vertex="1">
          <mxGeometry x="5" width="90" height="30" as="geometry" />
        </mxCell>
        <mxCell id="Iv2SSTLpsfRosrK7ilRP-63" value="… named backups." style="strokeWidth=1;shadow=0;dashed=0;align=center;html=1;shape=mxgraph.mockup.forms.rrect;rSize=0;fillColor=#eeeeee;strokeColor=#999999;gradientColor=#cccccc;align=left;spacingLeft=4;fontSize=17;fontColor=#666666;labelPosition=right;" parent="x8gMyu6OwGuHP-ef9QG5-12" vertex="1">
          <mxGeometry x="13.75" y="259.57462686567163" width="15" height="23.059701492537314" as="geometry" />
        </mxCell>
        <mxCell id="YEbgF9xkUqgCyze2J2hk-1" value="" style="group" vertex="1" connectable="0" parent="x8gMyu6OwGuHP-ef9QG5-12">
          <mxGeometry x="13.75" y="36.86567164179104" width="488" height="30.74626865671641" as="geometry" />
        </mxCell>
        <mxCell id="Iv2SSTLpsfRosrK7ilRP-33" value="… all backups for the preceding" style="strokeWidth=1;shadow=0;dashed=0;align=center;html=1;shape=mxgraph.mockup.forms.rrect;rSize=0;fillColor=#eeeeee;strokeColor=#999999;gradientColor=#cccccc;align=left;spacingLeft=4;fontSize=17;fontColor=#666666;labelPosition=right;" parent="YEbgF9xkUqgCyze2J2hk-1" vertex="1">
          <mxGeometry y="3.843283582089555" width="15" height="23.059701492537314" as="geometry" />
        </mxCell>
        <mxCell id="Iv2SSTLpsfRosrK7ilRP-34" value="14" style="strokeWidth=1;shadow=0;dashed=0;align=center;html=1;shape=mxgraph.mockup.forms.spinner;strokeColor=#999999;spinLayout=right;spinStyle=normal;adjStyle=triangle;fillColor=#aaddff;fontSize=17;fontColor=#666666;mainText=;html=1;overflow=fill;" parent="YEbgF9xkUqgCyze2J2hk-1" vertex="1">
          <mxGeometry x="333" width="70" height="30.746268656716417" as="geometry" />
        </mxCell>
        <mxCell id="Iv2SSTLpsfRosrK7ilRP-35" value="day(s)." style="text;spacingTop=-5;whiteSpace=wrap;html=1;align=left;fontSize=17;fontFamily=Helvetica;fillColor=none;strokeColor=none;fontColor=#808080;" parent="YEbgF9xkUqgCyze2J2hk-1" vertex="1">
          <mxGeometry x="408" width="80" height="30.746268656716417" as="geometry" />
        </mxCell>
        <mxCell id="YEbgF9xkUqgCyze2J2hk-2" value="" style="group" vertex="1" connectable="0" parent="x8gMyu6OwGuHP-ef9QG5-12">
          <mxGeometry x="16.25" y="79.57388059701492" width="471.25" height="30.74626865671641" as="geometry" />
        </mxCell>
        <mxCell id="Iv2SSTLpsfRosrK7ilRP-17" value="&lt;font color=&quot;#808080&quot;&gt;day(s).&lt;/font&gt;" style="text;spacingTop=-5;whiteSpace=wrap;html=1;align=left;fontSize=17;fontFamily=Helvetica;fillColor=none;strokeColor=none;" parent="YEbgF9xkUqgCyze2J2hk-2" vertex="1">
          <mxGeometry x="410" width="61.25" height="30.746268656716417" as="geometry" />
        </mxCell>
        <mxCell id="Iv2SSTLpsfRosrK7ilRP-16" value="30" style="strokeWidth=1;shadow=0;dashed=0;align=center;html=1;shape=mxgraph.mockup.forms.spinner;strokeColor=#999999;spinLayout=right;spinStyle=normal;adjStyle=triangle;fillColor=#aaddff;fontSize=17;fontColor=#666666;mainText=;html=1;overflow=fill;" parent="YEbgF9xkUqgCyze2J2hk-2" vertex="1">
          <mxGeometry x="332" width="70" height="30.746268656716417" as="geometry" />
        </mxCell>
        <mxCell id="Iv2SSTLpsfRosrK7ilRP-15" value="… one daily backup for the preceding" style="strokeWidth=1;shadow=0;dashed=0;align=center;html=1;shape=mxgraph.mockup.forms.rrect;rSize=0;fillColor=#eeeeee;strokeColor=#999999;gradientColor=#cccccc;align=left;spacingLeft=4;fontSize=17;fontColor=#666666;labelPosition=right;" parent="YEbgF9xkUqgCyze2J2hk-2" vertex="1">
          <mxGeometry y="3.843283582089555" width="15" height="23.059701492537314" as="geometry" />
        </mxCell>
        <mxCell id="YEbgF9xkUqgCyze2J2hk-3" value="" style="group" vertex="1" connectable="0" parent="x8gMyu6OwGuHP-ef9QG5-12">
          <mxGeometry x="16.25" y="123.57462686567163" width="490" height="30.74626865671641" as="geometry" />
        </mxCell>
        <mxCell id="Iv2SSTLpsfRosrK7ilRP-19" value="8" style="strokeWidth=1;shadow=0;dashed=0;align=center;html=1;shape=mxgraph.mockup.forms.spinner;strokeColor=#999999;spinLayout=right;spinStyle=normal;adjStyle=triangle;fillColor=#aaddff;fontSize=17;fontColor=#666666;mainText=;html=1;overflow=fill;" parent="YEbgF9xkUqgCyze2J2hk-3" vertex="1">
          <mxGeometry x="332" width="70" height="30.746268656716417" as="geometry" />
        </mxCell>
        <mxCell id="Iv2SSTLpsfRosrK7ilRP-20" value="&lt;font color=&quot;#808080&quot;&gt;week(s).&lt;/font&gt;" style="text;spacingTop=-5;whiteSpace=wrap;html=1;align=left;fontSize=17;fontFamily=Helvetica;fillColor=none;strokeColor=none;" parent="YEbgF9xkUqgCyze2J2hk-3" vertex="1">
          <mxGeometry x="410" width="80" height="30.746268656716417" as="geometry" />
        </mxCell>
        <mxCell id="Iv2SSTLpsfRosrK7ilRP-18" value="… one weekly backup for the preceding" style="strokeWidth=1;shadow=0;dashed=0;align=center;html=1;shape=mxgraph.mockup.forms.rrect;rSize=0;fillColor=#eeeeee;strokeColor=#999999;gradientColor=#cccccc;align=left;spacingLeft=4;fontSize=17;fontColor=#666666;labelPosition=right;" parent="YEbgF9xkUqgCyze2J2hk-3" vertex="1">
          <mxGeometry y="3.843283582089555" width="15" height="23.059701492537314" as="geometry" />
        </mxCell>
        <mxCell id="YEbgF9xkUqgCyze2J2hk-4" value="" style="group" vertex="1" connectable="0" parent="x8gMyu6OwGuHP-ef9QG5-12">
          <mxGeometry x="16.25" y="169.57029850746267" width="481.25" height="30.74626865671644" as="geometry" />
        </mxCell>
        <mxCell id="Iv2SSTLpsfRosrK7ilRP-23" value="&lt;font color=&quot;#808080&quot;&gt;months.&lt;/font&gt;" style="text;spacingTop=-5;whiteSpace=wrap;html=1;align=left;fontSize=17;fontFamily=Helvetica;fillColor=none;strokeColor=none;" parent="YEbgF9xkUqgCyze2J2hk-4" vertex="1">
          <mxGeometry x="412" width="69.25" height="30.746268656716417" as="geometry" />
        </mxCell>
        <mxCell id="Iv2SSTLpsfRosrK7ilRP-22" value="24" style="strokeWidth=1;shadow=0;dashed=0;align=center;html=1;shape=mxgraph.mockup.forms.spinner;strokeColor=#999999;spinLayout=right;spinStyle=normal;adjStyle=triangle;fillColor=#aaddff;fontSize=17;fontColor=#666666;mainText=;html=1;overflow=fill;" parent="YEbgF9xkUqgCyze2J2hk-4" vertex="1">
          <mxGeometry x="333" width="70" height="30.746268656716417" as="geometry" />
        </mxCell>
        <mxCell id="Iv2SSTLpsfRosrK7ilRP-21" value="… one monthly backup for the preceding" style="strokeWidth=1;shadow=0;dashed=0;align=center;html=1;shape=mxgraph.mockup.forms.rrect;rSize=0;fillColor=#eeeeee;strokeColor=#999999;gradientColor=#cccccc;align=left;spacingLeft=4;fontSize=17;fontColor=#666666;labelPosition=right;" parent="YEbgF9xkUqgCyze2J2hk-4" vertex="1">
          <mxGeometry y="3.843283582089555" width="15" height="23.059701492537314" as="geometry" />
        </mxCell>
        <mxCell id="YEbgF9xkUqgCyze2J2hk-5" value="" style="group" vertex="1" connectable="0" parent="x8gMyu6OwGuHP-ef9QG5-12">
          <mxGeometry x="25" y="219.57208955223882" width="401.5" height="30.74626865671644" as="geometry" />
        </mxCell>
        <mxCell id="Iv2SSTLpsfRosrK7ilRP-61" value="&lt;font color=&quot;#666666&quot;&gt;… one snapshot per year for&lt;/font&gt;" style="text;spacingTop=-5;whiteSpace=wrap;html=1;align=left;fontSize=17;fontFamily=Helvetica;fillColor=none;strokeColor=none;fontColor=#808080;" parent="YEbgF9xkUqgCyze2J2hk-5" vertex="1">
          <mxGeometry width="330" height="30.746268656716417" as="geometry" />
        </mxCell>
        <mxCell id="Iv2SSTLpsfRosrK7ilRP-62" value="&lt;div&gt;&lt;font color=&quot;#666666&quot;&gt;&lt;span style=&quot;background-color: initial;&quot;&gt;all years.&lt;/span&gt;&lt;/font&gt;&lt;/div&gt;" style="text;spacingTop=-5;whiteSpace=wrap;html=1;align=left;fontSize=17;fontFamily=Helvetica;fillColor=none;strokeColor=none;fontColor=#808080;container=0;" parent="YEbgF9xkUqgCyze2J2hk-5" vertex="1">
          <mxGeometry x="321.5" width="80" height="30.746268656716417" as="geometry" />
        </mxCell>
        <mxCell id="Iv2SSTLpsfRosrK7ilRP-64" value="Run in background on remote host." style="strokeWidth=1;shadow=0;dashed=0;align=center;html=1;shape=mxgraph.mockup.forms.rrect;rSize=0;fillColor=#eeeeee;strokeColor=#999999;gradientColor=#cccccc;align=left;spacingLeft=4;fontSize=17;fontColor=#666666;labelPosition=right;" parent="x8gMyu6OwGuHP-ef9QG5-16" vertex="1">
          <mxGeometry x="33.75" y="709.9955223880597" width="15" height="23.059701492537314" as="geometry" />
        </mxCell>
        <mxCell id="Kyt2Ybz1KD1fWm82J71v-1" value="&lt;p&gt;The rules are applied in descending order, as shown here.&lt;/p&gt;" style="text;html=1;align=left;verticalAlign=middle;whiteSpace=wrap;rounded=0;fontSize=17;" parent="x8gMyu6OwGuHP-ef9QG5-16" vertex="1">
          <mxGeometry x="20" y="76.86567164179104" width="450" height="46.11940298507463" as="geometry" />
        </mxCell>
        <mxCell id="Kyt2Ybz1KD1fWm82J71v-6" value="&lt;p&gt;Complete weeks are counted, starting with the previous week (date from-to).&amp;nbsp;The most recent backup of a week will be kept if multiple backups are available.&lt;/p&gt;" style="html=1;rounded=1;strokeColor=#DFE1E5;fontSize=14;align=center;shadow=1;arcSize=1;whiteSpace=wrap;verticalAlign=top;spacingLeft=0;spacingRight=0;spacingTop=0;spacing=0;labelBackgroundColor=#FEF0C4;textShadow=1;labelBorderColor=default;" parent="x8gMyu6OwGuHP-ef9QG5-16" vertex="1">
          <mxGeometry x="570" y="340.5122388059702" width="350" height="76.86567164179104" as="geometry" />
        </mxCell>
        <mxCell id="Kyt2Ybz1KD1fWm82J71v-7" value="&lt;p&gt;Complete months are counted, starting with the previous month (monthname).&amp;nbsp;The most recent backup of a month will be kept if multiple backups are available.&lt;/p&gt;" style="html=1;rounded=1;strokeColor=#DFE1E5;fontSize=14;align=center;shadow=1;arcSize=1;whiteSpace=wrap;verticalAlign=top;spacingLeft=0;spacingRight=0;spacingTop=0;spacing=0;labelBackgroundColor=#FEF0C4;textShadow=1;labelBorderColor=default;" parent="x8gMyu6OwGuHP-ef9QG5-16" vertex="1">
          <mxGeometry x="560" y="440.0004477611941" width="350" height="76.86567164179104" as="geometry" />
        </mxCell>
        <mxCell id="Kyt2Ybz1KD1fWm82J71v-8" value="&lt;p&gt;The most recent backup of a year will be kept if multiple backups are available.&lt;/p&gt;" style="html=1;rounded=1;strokeColor=#DFE1E5;fontSize=14;align=center;shadow=1;arcSize=1;whiteSpace=wrap;verticalAlign=top;spacingLeft=0;spacingRight=0;spacingTop=0;spacing=0;labelBackgroundColor=#FEF0C4;textShadow=1;labelBorderColor=default;" parent="x8gMyu6OwGuHP-ef9QG5-16" vertex="1">
          <mxGeometry x="547" y="549.9986567164179" width="270" height="76.86567164179104" as="geometry" />
        </mxCell>
        <mxCell id="YEbgF9xkUqgCyze2J2hk-6" value="" style="shape=mxgraph.mockup.containers.marginRect;rectMarginTop=10;strokeColor=#666666;strokeWidth=1;dashed=0;rounded=1;arcSize=5;recursiveResize=0;html=1;whiteSpace=wrap;" vertex="1" parent="x8gMyu6OwGuHP-ef9QG5-16">
          <mxGeometry x="20" y="550" width="450" height="139.69" as="geometry" />
        </mxCell>
        <mxCell id="YEbgF9xkUqgCyze2J2hk-7" value="Remove if …" style="shape=rect;strokeColor=none;fillColor=#008cff;strokeWidth=1;dashed=0;rounded=1;arcSize=20;fontColor=#ffffff;fontSize=17;spacing=2;spacingTop=-2;align=left;autosize=1;spacingLeft=4;resizeWidth=0;resizeHeight=0;perimeter=none;html=1;whiteSpace=wrap;" vertex="1" parent="YEbgF9xkUqgCyze2J2hk-6">
          <mxGeometry x="5" width="120" height="30" as="geometry" />
        </mxCell>
        <mxCell id="YEbgF9xkUqgCyze2J2hk-9" value="… free inodes are less than" style="strokeWidth=1;shadow=0;dashed=0;align=center;html=1;shape=mxgraph.mockup.forms.rrect;rSize=0;fillColor=#eeeeee;strokeColor=#999999;gradientColor=#cccccc;align=left;spacingLeft=4;fontSize=17;fontColor=#666666;labelPosition=right;" vertex="1" parent="YEbgF9xkUqgCyze2J2hk-6">
          <mxGeometry x="17.5" y="96.94373134328364" width="15" height="23.059701492537314" as="geometry" />
        </mxCell>
        <mxCell id="YEbgF9xkUqgCyze2J2hk-10" value="2%" style="strokeWidth=1;shadow=0;dashed=0;align=center;html=1;shape=mxgraph.mockup.forms.spinner;strokeColor=#999999;spinLayout=right;spinStyle=normal;adjStyle=triangle;fillColor=#aaddff;fontSize=17;fontColor=#666666;mainText=;html=1;overflow=fill;" vertex="1" parent="YEbgF9xkUqgCyze2J2hk-6">
          <mxGeometry x="252.5" y="89.2571641791045" width="70" height="30.746268656716417" as="geometry" />
        </mxCell>
        <mxCell id="YEbgF9xkUqgCyze2J2hk-11" value="… free space is less than" style="strokeWidth=1;shadow=0;dashed=0;align=center;html=1;shape=mxgraph.mockup.forms.rrect;rSize=0;fillColor=#eeeeee;strokeColor=#999999;gradientColor=#cccccc;align=left;spacingLeft=4;fontSize=17;fontColor=#666666;labelPosition=right;" vertex="1" parent="YEbgF9xkUqgCyze2J2hk-6">
          <mxGeometry x="17.5" y="46.94477611940303" width="15" height="23.059701492537314" as="geometry" />
        </mxCell>
        <mxCell id="YEbgF9xkUqgCyze2J2hk-12" value="512" style="strokeWidth=1;shadow=0;dashed=0;align=center;html=1;shape=mxgraph.mockup.forms.spinner;strokeColor=#999999;spinLayout=right;spinStyle=normal;adjStyle=triangle;fillColor=#aaddff;fontSize=17;fontColor=#666666;mainText=;html=1;overflow=fill;" vertex="1" parent="YEbgF9xkUqgCyze2J2hk-6">
          <mxGeometry x="252.5" y="39.25820895522392" width="70" height="30.746268656716417" as="geometry" />
        </mxCell>
        <mxCell id="YEbgF9xkUqgCyze2J2hk-13" value="MiB" style="strokeWidth=1;shadow=0;dashed=0;align=center;html=1;shape=mxgraph.mockup.forms.comboBox;strokeColor=#999999;fillColor=#ddeeff;align=left;fillColor2=#aaddff;mainText=;fontColor=#666666;fontSize=17;spacingLeft=3;" vertex="1" parent="YEbgF9xkUqgCyze2J2hk-6">
          <mxGeometry x="340.5" y="39.25820895522392" width="100" height="30.746268656716417" as="geometry" />
        </mxCell>
        <mxCell id="Kyt2Ybz1KD1fWm82J71v-13" value="" style="endArrow=none;dashed=1;html=1;dashPattern=1 3;strokeWidth=2;rounded=0;exitX=0.744;exitY=0.716;exitDx=0;exitDy=0;exitPerimeter=0;entryX=0;entryY=0.25;entryDx=0;entryDy=0;" parent="x8gMyu6OwGuHP-ef9QG5-16" target="Kyt2Ybz1KD1fWm82J71v-6" edge="1" source="Iv2SSTLpsfRosrK7ilRP-19">
          <mxGeometry width="50" height="50" relative="1" as="geometry">
            <mxPoint x="430" y="464.8320895522388" as="sourcePoint" />
            <mxPoint x="560" y="404.8768656716418" as="targetPoint" />
          </mxGeometry>
        </mxCell>
        <mxCell id="Kyt2Ybz1KD1fWm82J71v-4" value="&lt;p&gt;The days are counted starting from yesterday.&lt;/p&gt;" style="html=1;rounded=1;strokeColor=#DFE1E5;fontSize=14;align=center;shadow=1;arcSize=1;whiteSpace=wrap;verticalAlign=top;spacingLeft=0;spacingRight=0;spacingTop=0;spacing=0;labelBackgroundColor=#FEF0C4;textShadow=1;labelBorderColor=default;" parent="x8gMyu6OwGuHP-ef9QG5-16" vertex="1">
          <mxGeometry x="540" y="180" width="170" height="60" as="geometry" />
        </mxCell>
        <mxCell id="Kyt2Ybz1KD1fWm82J71v-11" value="" style="endArrow=none;dashed=1;html=1;dashPattern=1 3;strokeWidth=2;rounded=0;exitX=0.119;exitY=0.144;exitDx=0;exitDy=0;exitPerimeter=0;entryX=0;entryY=0.75;entryDx=0;entryDy=0;" parent="x8gMyu6OwGuHP-ef9QG5-16" source="Iv2SSTLpsfRosrK7ilRP-35" edge="1" target="Kyt2Ybz1KD1fWm82J71v-4">
          <mxGeometry width="50" height="50" relative="1" as="geometry">
            <mxPoint x="460" y="220.01492537313433" as="sourcePoint" />
            <mxPoint x="552" y="261.5223880597015" as="targetPoint" />
          </mxGeometry>
        </mxCell>
        <mxCell id="Kyt2Ybz1KD1fWm82J71v-5" value="&lt;p&gt;The days are counted starting from yesterday.&lt;/p&gt;" style="html=1;rounded=1;strokeColor=#DFE1E5;fontSize=14;align=center;shadow=1;arcSize=1;whiteSpace=wrap;verticalAlign=top;spacingLeft=0;spacingRight=0;spacingTop=0;spacing=0;labelBackgroundColor=#FEF0C4;textShadow=1;labelBorderColor=default;" parent="x8gMyu6OwGuHP-ef9QG5-16" vertex="1">
          <mxGeometry x="610" y="259.57" width="170" height="60" as="geometry" />
        </mxCell>
        <mxCell id="Kyt2Ybz1KD1fWm82J71v-12" value="" style="endArrow=none;dashed=1;html=1;dashPattern=1 3;strokeWidth=2;rounded=0;exitX=0.906;exitY=0.494;exitDx=0;exitDy=0;exitPerimeter=0;entryX=0;entryY=0.5;entryDx=0;entryDy=0;" parent="x8gMyu6OwGuHP-ef9QG5-16" target="Kyt2Ybz1KD1fWm82J71v-5" edge="1" source="Iv2SSTLpsfRosrK7ilRP-16">
          <mxGeometry width="50" height="50" relative="1" as="geometry">
            <mxPoint x="500" y="598.0149253731344" as="sourcePoint" />
            <mxPoint x="601" y="538.0597014925373" as="targetPoint" />
          </mxGeometry>
        </mxCell>
        <mxCell id="Kyt2Ybz1KD1fWm82J71v-9" value="" style="endArrow=none;dashed=1;html=1;dashPattern=1 3;strokeWidth=2;rounded=0;exitX=0;exitY=1;exitDx=0;exitDy=0;entryX=0;entryY=0.5;entryDx=0;entryDy=0;" parent="x8gMyu6OwGuHP-ef9QG5-16" source="Iv2SSTLpsfRosrK7ilRP-23" target="Kyt2Ybz1KD1fWm82J71v-7" edge="1">
          <mxGeometry width="50" height="50" relative="1" as="geometry">
            <mxPoint x="430" y="512.1044776119403" as="sourcePoint" />
            <mxPoint x="480" y="435.23880597014926" as="targetPoint" />
          </mxGeometry>
        </mxCell>
        <mxCell id="Kyt2Ybz1KD1fWm82J71v-10" value="" style="endArrow=none;dashed=1;html=1;dashPattern=1 3;strokeWidth=2;rounded=0;exitX=1;exitY=0.5;exitDx=0;exitDy=0;entryX=0;entryY=0.5;entryDx=0;entryDy=0;" parent="x8gMyu6OwGuHP-ef9QG5-16" edge="1" target="Kyt2Ybz1KD1fWm82J71v-8" source="Iv2SSTLpsfRosrK7ilRP-62">
          <mxGeometry width="50" height="50" relative="1" as="geometry">
            <mxPoint x="400" y="624.3283582089553" as="sourcePoint" />
            <mxPoint x="492" y="665.8358208955224" as="targetPoint" />
          </mxGeometry>
        </mxCell>
      </root>
    </mxGraphModel>
  </diagram>
</mxfile>
